<?xml version="1.0" encoding="UTF-8"?>
<svg viewBox="0 0 178.25954 96.149269" xmlns="http://www.w3.org/2000/svg">
 <path d="m0.5 83.315c0.0391 3.9868 1.8225 7.849 4.2289 12.334 23.494-9.6324 49.179-21.29 70.481-28.897 21.262-7.5927 47.399-17.521 57.09-21.144 9.7995-3.6646 16.713-4.4852 21.144-4.5813 4.5562-0.09609 13.847 0.42712 20.895 1.0145 1.431-2.6376 2.9866-6.6458 3.4208-10.529-7.7386-1.3278-15.726-2.9048-23.964-2.1144 6.2472-5.553 12.121-13.349 17.62-21.144-3.6415-2.5843-7.4076-4.421-10.925-7.7529-5.6028 9.1234-13.751 17.343-18.802 22.511s-7.1017 6.8667-11.256 8.0021c-4.27 1.1671-14.481 5.7506-34.226 15.257-19.693 9.4811-74.105 26.69-95.708 37.045z" fill="#501616" fill-rule="evenodd" stroke="#000"/>
</svg>
